<?xml version="1.0" standalone="no"?>
<svg version="1.0" xmlns="http://www.w3.org/2000/svg"
 width="256.000000pt" height="256.000000pt" viewBox="0 0 256.000000 256.000000"
 preserveAspectRatio="xMidYMid meet">
<g transform="translate(0.000000,256.000000) scale(0.100000,-0.100000)"
fill="#088253" stroke="none">
<path d="M1110 1560 c-520 -131 -956 -242 -970 -248 l-25 -10 27 -11 c15 -5
76 -24 135 -41 127 -37 1613 -479 1629 -485 7 -2 27 60 54 168 23 95 46 176
50 180 4 4 91 1 193 -8 103 -9 198 -15 212 -13 23 3 2 26 -188 206 l-214 203
24 112 c13 62 28 129 32 150 6 26 6 37 -3 36 -6 0 -436 -108 -956 -239z m170
-380 c338 -27 622 -51 631 -52 15 -3 13 -18 -16 -136 -18 -73 -34 -134 -36
-136 -3 -3 -1214 356 -1244 368 -24 10 87 3 665 -44z"/>
</g>
</svg>
