<?xml version="1.0" encoding="UTF-8" standalone="no"?>
<svg xmlns="http://www.w3.org/2000/svg" version="1.0">
	<path d="m0 1280v-1280h1280 1280v1280 1280h-1280-1280v-1280zm2539 1256c8-10 10-349 9-1267l-3-1254-1254-3c-918-1-1257 1-1267 9-12 10-14 221-14 1264 0 688 3 1255 7 1258 3 4 570 7 1258 7 1043 0 1254-2 1264-14z"/>
	<path fill="#088253" d="m1165 1590c-1035-260-1065-268-1065-290 0-12 188-72 898-283 493-147 905-267 914-267s19 8 21 18c3 9 22 85 42 167 21 83 41 154 46 159 8 9 231-4 387-21 42-5 52-3 52 9 0 9-93 105-207 214-115 109-211 203-215 209s6 72 22 146c17 73 30 139 30 146 0 8-12 13-27 12-16 0-419-99-898-219zm200-431c286-23 525-46 531-51 8-6 5-36-14-111-13-56-29-106-33-111-10-12-1040 294-1033 306 7 11-30 13 549-33z"/>
</svg>
